<svg width="510" height="510" xmlns="http://www.w3.org/2000/svg" baseProfile="full"><path id="0" fill="none" fill-opacity="1" d="M0 0h510v510H0z"/><path d="M255 25.9a20 20 0 0 1 21.7-20 250 250 0 0 1 219.8 184.4 20 20 0 0 1-15.9 24.9l-171.7 30.3a5 5 0 0 1-5.7-3.6 50 50 0 0 0-43.7-36.7 5 5 0 0 1-4.5-5Z" fill="#5470c6" stroke="#fff" stroke-width="4" stroke-linejoin="round" transform-origin="255px 255px" style="animation:zr0-ani-0 .5s cubic-bezier(.33,1,.68,1) .5s both"/><path d="M443.3 221.8a18 18 0 0 1 21 16.3 210 210 0 0 1-70.5 174.5 18 18 0 0 1-26.4-3l-80.2-110.3a5 5 0 0 1 .7-6.7 50 50 0 0 0 16.9-41.8 5 5 0 0 1 4.1-5.3Z" fill="#91cc75" stroke="#fff" stroke-width="4" stroke-linejoin="round" transform-origin="255px 255px" style="animation:zr0-ani-1 .5s cubic-bezier(.33,1,.68,1) .4375s both"/><path d="M356.8 395.2a16 16 0 0 1-4.7 23.1 190 190 0 0 1-145.4 20.5 16 16 0 0 1-11-21l40.6-111.3a5 5 0 0 1 5.9-3.2 50 50 0 0 0 38.4-5.3 5 5 0 0 1 6.6 1.3Z" fill="#fac858" stroke="#fff" stroke-width="4" stroke-linejoin="round" transform-origin="255px 255px" style="animation:zr0-ani-2 .5s cubic-bezier(.33,1,.68,1) .375s both"/><path d="M201.9 401a14 14 0 0 1-19.1 7.9 170 170 0 0 1-79.1-76.3 14 14 0 0 1 7.2-19.4l93.3-37.7a5 5 0 0 1 6.3 2.4 50 50 0 0 0 23.2 22.3 5 5 0 0 1 2.6 6.3Z" fill="#e66" stroke="#fff" stroke-width="4" stroke-linejoin="round" transform-origin="255px 255px" style="animation:zr0-ani-3 .5s cubic-bezier(.33,1,.68,1) .3125s both"/><path d="M132.2 304.6a12 12 0 0 1-16-7.6 145 145 0 0 1-3.6-69.2 12 12 0 0 1 15.1-9.3l74.6 21.4a5 5 0 0 1 3.6 5.7 50 50 0 0 0 1.2 23.8 5 5 0 0 1-2.9 6.1Z" fill="#73c0de" stroke="#fff" stroke-width="4" stroke-linejoin="round" transform-origin="255px 255px" style="animation:zr0-ani-4 .5s cubic-bezier(.33,1,.68,1) .25s both"/><path d="M144.9 223.4a10 10 0 0 1-6.6-13.2 125 125 0 0 1 22.4-37.2 10 10 0 0 1 14.7-.4l41.6 43a5 5 0 0 1 .1 6.7 50 50 0 0 0-8.7 14.6 5 5 0 0 1-6.1 3Z" fill="#3ba272" stroke="#fff" stroke-width="4" stroke-linejoin="round" transform-origin="255px 255px" style="animation:zr0-ani-5 .5s cubic-bezier(.33,1,.68,1) .1875s both"/><path d="M184.4 181.9a8 8 0 0 1 .6-11.8 110 110 0 0 1 24.4-15.2 8 8 0 0 1 10.8 4.5l16.1 44.1a5 5 0 0 1-2.6 6.3 50 50 0 0 0-10 6.2 5 5 0 0 1-6.7-.4Z" fill="#fc8452" stroke="#fff" stroke-width="4" stroke-linejoin="round" transform-origin="255px 255px" style="animation:zr0-ani-6 .5s cubic-bezier(.33,1,.68,1) .125s both"/><path d="M222.9 166.8a6 6 0 0 1 4-7.8 100 100 0 0 1 21.7-3.8 6 6 0 0 1 6.4 6v39a5 5 0 0 1-4.5 5 50 50 0 0 0-8.3 1.5 5 5 0 0 1-5.9-3.2Z" fill="#9a60b4" stroke="#fff" stroke-width="4" stroke-linejoin="round" transform-origin="255px 255px" style="animation:zr0-ani-7 .5s cubic-bezier(.33,1,.68,1) .0625s both"/><style>@keyframes zr0-ani-0{0%{transform:scale(0,0)}}@keyframes zr0-ani-1{0%{transform:scale(0,0)}}@keyframes zr0-ani-2{0%{transform:scale(0,0)}}@keyframes zr0-ani-3{0%{transform:scale(0,0)}}@keyframes zr0-ani-4{0%{transform:scale(0,0)}}@keyframes zr0-ani-5{0%{transform:scale(0,0)}}@keyframes zr0-ani-6{0%{transform:scale(0,0)}}@keyframes zr0-ani-7{0%{transform:scale(0,0)}}</style></svg>